<svg width="140" height="20" viewBox="0 0 140 20" fill="none" xmlns="http://www.w3.org/2000/svg">
<path d="M10.0001 14.3916L13.4584 16.4833C14.0917 16.8666 14.8667 16.3 14.7001 15.5833L13.7834 11.65L16.8417 8.99997C17.4001 8.51663 17.1001 7.59997 16.3667 7.54163L12.3417 7.19997L10.7667 3.4833C10.4834 2.8083 9.51673 2.8083 9.23339 3.4833L7.65839 7.19163L3.63339 7.5333C2.90006 7.59163 2.60006 8.5083 3.15839 8.99163L6.21673 11.6416L5.30006 15.575C5.13339 16.2916 5.90839 16.8583 6.54173 16.475L10.0001 14.3916Z" fill="white"/>
<path d="M50.0001 14.3916L53.4584 16.4833C54.0917 16.8666 54.8667 16.3 54.7001 15.5833L53.7834 11.65L56.8417 8.99997C57.4001 8.51663 57.1001 7.59997 56.3667 7.54163L52.3417 7.19997L50.7667 3.4833C50.4834 2.8083 49.5167 2.8083 49.2334 3.4833L47.6584 7.19163L43.6334 7.5333C42.9001 7.59163 42.6001 8.5083 43.1584 8.99163L46.2167 11.6416L45.3001 15.575C45.1334 16.2916 45.9084 16.8583 46.5417 16.475L50.0001 14.3916Z" fill="white"/>
<path d="M90.0001 14.3916L93.4584 16.4833C94.0917 16.8666 94.8667 16.3 94.7001 15.5833L93.7834 11.65L96.8417 8.99997C97.4001 8.51663 97.1001 7.59997 96.3667 7.54163L92.3417 7.19997L90.7667 3.4833C90.4834 2.8083 89.5167 2.8083 89.2334 3.4833L87.6584 7.19163L83.6334 7.5333C82.9001 7.59163 82.6001 8.5083 83.1584 8.99163L86.2167 11.6416L85.3001 15.575C85.1334 16.2916 85.9084 16.8583 86.5417 16.475L90.0001 14.3916Z" fill="white"/>
<path d="M130 14.3916L133.458 16.4833C134.092 16.8666 134.867 16.3 134.7 15.5833L133.783 11.65L136.842 8.99997C137.4 8.51663 137.1 7.59997 136.367 7.54163L132.342 7.19997L130.767 3.4833C130.483 2.8083 129.517 2.8083 129.233 3.4833L127.658 7.19163L123.633 7.5333C122.9 7.59163 122.6 8.5083 123.158 8.99163L126.217 11.6416L125.3 15.575C125.133 16.2916 125.908 16.8583 126.542 16.475L130 14.3916Z" fill="white"/>
</svg>
